<svg width="16" height="16" viewBox="0 0 16 16" fill="none" xmlns="http://www.w3.org/2000/svg">
<g clip-path="url(#clip0_2283_3092)">
<path d="M1.91744 12.0771C1.94807 11.8014 1.96339 11.6636 2.00509 11.5348C2.04209 11.4205 2.09437 11.3117 2.16051 11.2114C2.23505 11.0984 2.33311 11.0003 2.52923 10.8042L11.3334 2C12.0698 1.26362 13.2637 1.26362 14.0001 2C14.7365 2.73638 14.7365 3.93029 14.0001 4.66667L5.1959 13.4709C4.99978 13.667 4.90172 13.765 4.78867 13.8396C4.68838 13.9057 4.57961 13.958 4.46531 13.995C4.33648 14.0367 4.19865 14.052 3.92299 14.0826L1.66675 14.3333L1.91744 12.0771Z" stroke="#A4A7AE" stroke-width="1.5" stroke-linecap="round" stroke-linejoin="round"/>
</g>
<defs>
<clipPath id="clip0_2283_3092">
<rect width="16" height="16" fill="white"/>
</clipPath>
</defs>
</svg>
