<svg width="60" height="60" viewBox="0 0 60 60" fill="none" xmlns="http://www.w3.org/2000/svg">
<g filter="url(#filter0_dii_2011_28217)">
<rect x="2" y="1" width="56" height="56" rx="12" fill="white"/>
<rect x="2.5" y="1.5" width="55" height="55" rx="11.5" stroke="#D5D7DA"/>
<path d="M18.3333 23.1667L27.8591 29.8348C28.6304 30.3747 29.0161 30.6447 29.4356 30.7493C29.8062 30.8416 30.1938 30.8416 30.5644 30.7493C30.9839 30.6447 31.3696 30.3747 32.1409 29.8348L41.6667 23.1667M23.9333 38.3334H36.0667C38.0268 38.3334 39.0069 38.3334 39.7556 37.9519C40.4142 37.6164 40.9496 37.081 41.2852 36.4224C41.6667 35.6737 41.6667 34.6936 41.6667 32.7334V25.2667C41.6667 23.3066 41.6667 22.3265 41.2852 21.5778C40.9496 20.9192 40.4142 20.3838 39.7556 20.0482C39.0069 19.6667 38.0268 19.6667 36.0667 19.6667H23.9333C21.9731 19.6667 20.9931 19.6667 20.2444 20.0482C19.5858 20.3838 19.0504 20.9192 18.7148 21.5778C18.3333 22.3265 18.3333 23.3066 18.3333 25.2667V32.7334C18.3333 34.6936 18.3333 35.6737 18.7148 36.4224C19.0504 37.081 19.5858 37.6164 20.2444 37.9519C20.9931 38.3334 21.9731 38.3334 23.9333 38.3334Z" stroke="#414651" stroke-width="2" stroke-linecap="round" stroke-linejoin="round"/>
</g>
<defs>
<filter id="filter0_dii_2011_28217" x="0" y="0" width="60" height="60" filterUnits="userSpaceOnUse" color-interpolation-filters="sRGB">
<feFlood flood-opacity="0" result="BackgroundImageFix"/>
<feColorMatrix in="SourceAlpha" type="matrix" values="0 0 0 0 0 0 0 0 0 0 0 0 0 0 0 0 0 0 127 0" result="hardAlpha"/>
<feOffset dy="1"/>
<feGaussianBlur stdDeviation="1"/>
<feColorMatrix type="matrix" values="0 0 0 0 0.0392157 0 0 0 0 0.0509804 0 0 0 0 0.0705882 0 0 0 0.05 0"/>
<feBlend mode="normal" in2="BackgroundImageFix" result="effect1_dropShadow_2011_28217"/>
<feBlend mode="normal" in="SourceGraphic" in2="effect1_dropShadow_2011_28217" result="shape"/>
<feColorMatrix in="SourceAlpha" type="matrix" values="0 0 0 0 0 0 0 0 0 0 0 0 0 0 0 0 0 0 127 0" result="hardAlpha"/>
<feOffset dy="-2"/>
<feComposite in2="hardAlpha" operator="arithmetic" k2="-1" k3="1"/>
<feColorMatrix type="matrix" values="0 0 0 0 0.0392157 0 0 0 0 0.0496732 0 0 0 0 0.0705882 0 0 0 0.05 0"/>
<feBlend mode="normal" in2="shape" result="effect2_innerShadow_2011_28217"/>
<feColorMatrix in="SourceAlpha" type="matrix" values="0 0 0 0 0 0 0 0 0 0 0 0 0 0 0 0 0 0 127 0" result="hardAlpha"/>
<feMorphology radius="1" operator="erode" in="SourceAlpha" result="effect3_innerShadow_2011_28217"/>
<feOffset/>
<feComposite in2="hardAlpha" operator="arithmetic" k2="-1" k3="1"/>
<feColorMatrix type="matrix" values="0 0 0 0 0.0392157 0 0 0 0 0.0496732 0 0 0 0 0.0705882 0 0 0 0.18 0"/>
<feBlend mode="normal" in2="effect2_innerShadow_2011_28217" result="effect3_innerShadow_2011_28217"/>
</filter>
</defs>
</svg>
